<svg width="36" height="36" viewBox="0 0 36 36" fill="none" xmlns="http://www.w3.org/2000/svg">
<path d="M22.1332 23.776C22.6573 24.3002 23.5071 24.3002 24.0312 23.776C24.5553 23.2519 24.5553 22.4021 24.0312 21.878L19.9188 17.7656L24.0312 13.6532C24.5553 13.1291 24.5553 12.2793 24.0312 11.7552C23.5071 11.2311 22.6573 11.2311 22.1332 11.7552L18.0208 15.8676L13.9084 11.7552C13.3843 11.2311 12.5345 11.2311 12.0104 11.7552C11.4863 12.2793 11.4863 13.1291 12.0104 13.6532L16.1228 17.7656L12.0104 21.878C11.4863 22.4021 11.4863 23.2519 12.0104 23.776C12.5345 24.3002 13.3843 24.3002 13.9084 23.776L18.0208 19.6636L22.1332 23.776Z" fill="white" fill-opacity="0.5"/>
</svg>
